<mxfile host="app.diagrams.net" agent="Mozilla/5.0 (Windows NT 10.0; Win64; x64) AppleWebKit/537.36 (KHTML, like Gecko) Chrome/131.0.0.0 Safari/537.36" version="25.0.1">
  <diagram name="第 1 页" id="JnkWU8lNjrabSq-MCaUN">
    <mxGraphModel dx="1050" dy="569" grid="1" gridSize="10" guides="1" tooltips="1" connect="1" arrows="1" fold="1" page="1" pageScale="1" pageWidth="827" pageHeight="1169" math="0" shadow="0">
      <root>
        <mxCell id="0" />
        <mxCell id="1" parent="0" />
        <mxCell id="Xf5N_1pmWuM3FotxF5dR-1" value="用户管理功能" style="swimlane;whiteSpace=wrap;html=1;" parent="1" vertex="1">
          <mxGeometry x="320" y="80" width="280" height="350" as="geometry" />
        </mxCell>
        <mxCell id="Xf5N_1pmWuM3FotxF5dR-2" value="用户注册" style="ellipse;whiteSpace=wrap;html=1;fillColor=#dae8fc;strokeColor=#6c8ebf;" parent="Xf5N_1pmWuM3FotxF5dR-1" vertex="1">
          <mxGeometry x="42.5" y="40" width="85" height="40" as="geometry" />
        </mxCell>
        <mxCell id="Xf5N_1pmWuM3FotxF5dR-4" value="用户登录" style="ellipse;whiteSpace=wrap;html=1;fillColor=#dae8fc;strokeColor=#6c8ebf;" parent="Xf5N_1pmWuM3FotxF5dR-1" vertex="1">
          <mxGeometry x="42.5" y="90" width="85" height="40" as="geometry" />
        </mxCell>
        <mxCell id="Xf5N_1pmWuM3FotxF5dR-6" value="用户信息修改" style="ellipse;whiteSpace=wrap;html=1;fillColor=#dae8fc;strokeColor=#6c8ebf;" parent="Xf5N_1pmWuM3FotxF5dR-1" vertex="1">
          <mxGeometry x="42.5" y="240" width="85" height="40" as="geometry" />
        </mxCell>
        <mxCell id="Xf5N_1pmWuM3FotxF5dR-7" value="用户类型修改" style="ellipse;whiteSpace=wrap;html=1;fillColor=#dae8fc;strokeColor=#6c8ebf;" parent="Xf5N_1pmWuM3FotxF5dR-1" vertex="1">
          <mxGeometry x="42.5" y="290" width="85" height="40" as="geometry" />
        </mxCell>
        <mxCell id="Xf5N_1pmWuM3FotxF5dR-11" value="用户密码修改" style="ellipse;whiteSpace=wrap;html=1;fillColor=#dae8fc;strokeColor=#6c8ebf;" parent="Xf5N_1pmWuM3FotxF5dR-1" vertex="1">
          <mxGeometry x="42.5" y="140" width="85" height="40" as="geometry" />
        </mxCell>
        <mxCell id="Xf5N_1pmWuM3FotxF5dR-12" value="用户密码找回" style="ellipse;whiteSpace=wrap;html=1;fillColor=#dae8fc;strokeColor=#6c8ebf;" parent="Xf5N_1pmWuM3FotxF5dR-1" vertex="1">
          <mxGeometry x="42.5" y="190" width="85" height="40" as="geometry" />
        </mxCell>
        <mxCell id="Xf5N_1pmWuM3FotxF5dR-25" value="普通用户/商家账号" style="shape=note2;boundedLbl=1;whiteSpace=wrap;html=1;size=11;verticalAlign=top;align=center;fillColor=#dae8fc;strokeColor=#6c8ebf;" parent="Xf5N_1pmWuM3FotxF5dR-1" vertex="1">
          <mxGeometry x="155" y="285" width="110" height="50" as="geometry" />
        </mxCell>
        <mxCell id="w10hGMymRXJyzQoosufp-3" value="" style="endArrow=none;dashed=1;html=1;rounded=0;entryX=1;entryY=0.5;entryDx=0;entryDy=0;exitX=0;exitY=0.5;exitDx=0;exitDy=0;exitPerimeter=0;" edge="1" parent="Xf5N_1pmWuM3FotxF5dR-1" source="Xf5N_1pmWuM3FotxF5dR-25" target="Xf5N_1pmWuM3FotxF5dR-7">
          <mxGeometry width="50" height="50" relative="1" as="geometry">
            <mxPoint x="410" y="180" as="sourcePoint" />
            <mxPoint x="300" y="170" as="targetPoint" />
          </mxGeometry>
        </mxCell>
        <mxCell id="Xf5N_1pmWuM3FotxF5dR-14" value="普通用户" style="shape=umlActor;verticalLabelPosition=bottom;verticalAlign=top;html=1;fillColor=#f8cecc;strokeColor=#b85450;" parent="1" vertex="1">
          <mxGeometry x="220" y="120" width="30" height="60" as="geometry" />
        </mxCell>
        <mxCell id="Xf5N_1pmWuM3FotxF5dR-15" value="商家" style="shape=umlActor;verticalLabelPosition=bottom;verticalAlign=top;html=1;fillColor=#f8cecc;strokeColor=#b85450;" parent="1" vertex="1">
          <mxGeometry x="220" y="215" width="30" height="60" as="geometry" />
        </mxCell>
        <mxCell id="Xf5N_1pmWuM3FotxF5dR-16" value="管理员" style="shape=umlActor;verticalLabelPosition=bottom;verticalAlign=top;html=1;fillColor=#f8cecc;strokeColor=#b85450;" parent="1" vertex="1">
          <mxGeometry x="220" y="320" width="30" height="60" as="geometry" />
        </mxCell>
        <mxCell id="Xf5N_1pmWuM3FotxF5dR-17" value="" style="endArrow=block;endFill=0;html=1;rounded=0;fillColor=#d5e8d4;strokeColor=#82b366;exitX=0.5;exitY=0;exitDx=0;exitDy=0;exitPerimeter=0;entryX=0.5;entryY=0.5;entryDx=0;entryDy=0;entryPerimeter=0;" parent="1" source="Xf5N_1pmWuM3FotxF5dR-15" target="Xf5N_1pmWuM3FotxF5dR-14" edge="1">
          <mxGeometry width="160" relative="1" as="geometry">
            <mxPoint x="275" y="365" as="sourcePoint" />
            <mxPoint x="260" y="285" as="targetPoint" />
          </mxGeometry>
        </mxCell>
        <mxCell id="Xf5N_1pmWuM3FotxF5dR-19" value="" style="endArrow=none;html=1;rounded=0;fillColor=#d5e8d4;strokeColor=#82b366;exitX=0;exitY=0.5;exitDx=0;exitDy=0;entryX=1;entryY=0.3333333333333333;entryDx=0;entryDy=0;entryPerimeter=0;" parent="1" source="Xf5N_1pmWuM3FotxF5dR-4" target="Xf5N_1pmWuM3FotxF5dR-16" edge="1">
          <mxGeometry width="50" height="50" relative="1" as="geometry">
            <mxPoint x="380" y="40" as="sourcePoint" />
            <mxPoint x="220" y="90" as="targetPoint" />
          </mxGeometry>
        </mxCell>
        <mxCell id="Xf5N_1pmWuM3FotxF5dR-20" value="" style="endArrow=none;html=1;rounded=0;fillColor=#d5e8d4;strokeColor=#82b366;exitX=0;exitY=0.5;exitDx=0;exitDy=0;entryX=1;entryY=0.3333333333333333;entryDx=0;entryDy=0;entryPerimeter=0;" parent="1" source="Xf5N_1pmWuM3FotxF5dR-7" target="Xf5N_1pmWuM3FotxF5dR-16" edge="1">
          <mxGeometry width="50" height="50" relative="1" as="geometry">
            <mxPoint x="390" y="50" as="sourcePoint" />
            <mxPoint x="230" y="100" as="targetPoint" />
          </mxGeometry>
        </mxCell>
        <mxCell id="Xf5N_1pmWuM3FotxF5dR-21" value="" style="endArrow=none;html=1;rounded=0;fillColor=#d5e8d4;strokeColor=#82b366;exitX=0;exitY=0.5;exitDx=0;exitDy=0;entryX=1;entryY=0.3333333333333333;entryDx=0;entryDy=0;entryPerimeter=0;" parent="1" source="Xf5N_1pmWuM3FotxF5dR-6" target="Xf5N_1pmWuM3FotxF5dR-14" edge="1">
          <mxGeometry width="50" height="50" relative="1" as="geometry">
            <mxPoint x="400" y="60" as="sourcePoint" />
            <mxPoint x="240" y="110" as="targetPoint" />
          </mxGeometry>
        </mxCell>
        <mxCell id="Xf5N_1pmWuM3FotxF5dR-23" value="" style="endArrow=none;html=1;rounded=0;fillColor=#d5e8d4;strokeColor=#82b366;entryX=1;entryY=0.3333333333333333;entryDx=0;entryDy=0;entryPerimeter=0;exitX=0;exitY=0.5;exitDx=0;exitDy=0;" parent="1" source="Xf5N_1pmWuM3FotxF5dR-4" target="Xf5N_1pmWuM3FotxF5dR-14" edge="1">
          <mxGeometry width="50" height="50" relative="1" as="geometry">
            <mxPoint x="400" y="110" as="sourcePoint" />
            <mxPoint x="260" y="130" as="targetPoint" />
          </mxGeometry>
        </mxCell>
        <mxCell id="Xf5N_1pmWuM3FotxF5dR-24" value="" style="endArrow=none;html=1;rounded=0;fillColor=#d5e8d4;strokeColor=#82b366;exitX=0;exitY=0.5;exitDx=0;exitDy=0;entryX=1;entryY=0.3333333333333333;entryDx=0;entryDy=0;entryPerimeter=0;" parent="1" source="Xf5N_1pmWuM3FotxF5dR-2" target="Xf5N_1pmWuM3FotxF5dR-14" edge="1">
          <mxGeometry width="50" height="50" relative="1" as="geometry">
            <mxPoint x="430" y="90" as="sourcePoint" />
            <mxPoint x="270" y="140" as="targetPoint" />
          </mxGeometry>
        </mxCell>
        <mxCell id="w10hGMymRXJyzQoosufp-4" value="" style="endArrow=none;html=1;rounded=0;fillColor=#d5e8d4;strokeColor=#82b366;exitX=0;exitY=0.5;exitDx=0;exitDy=0;entryX=1;entryY=0.3333333333333333;entryDx=0;entryDy=0;entryPerimeter=0;" edge="1" parent="1" source="Xf5N_1pmWuM3FotxF5dR-12" target="Xf5N_1pmWuM3FotxF5dR-14">
          <mxGeometry width="50" height="50" relative="1" as="geometry">
            <mxPoint x="773" y="345" as="sourcePoint" />
            <mxPoint x="660" y="145" as="targetPoint" />
          </mxGeometry>
        </mxCell>
        <mxCell id="w10hGMymRXJyzQoosufp-5" value="" style="endArrow=none;html=1;rounded=0;fillColor=#d5e8d4;strokeColor=#82b366;exitX=0;exitY=0.5;exitDx=0;exitDy=0;entryX=1;entryY=0.3333333333333333;entryDx=0;entryDy=0;entryPerimeter=0;" edge="1" parent="1" source="Xf5N_1pmWuM3FotxF5dR-11" target="Xf5N_1pmWuM3FotxF5dR-14">
          <mxGeometry width="50" height="50" relative="1" as="geometry">
            <mxPoint x="783" y="355" as="sourcePoint" />
            <mxPoint x="670" y="155" as="targetPoint" />
          </mxGeometry>
        </mxCell>
      </root>
    </mxGraphModel>
  </diagram>
</mxfile>
